<!-- <svg xmlns="http://www.w3.org/2000/svg" xmlns:xlink="http://www.w3.org/1999/xlink" id="图层_1" width="512" height="512" x="0" y="0" enable-background="new 0 0 512 512" version="1.1" viewBox="0 0 512 512" xml:space="preserve"><path fill-rule="evenodd" d="M259.119,233.588c0-3.644,0.041-7.289-0.008-10.932	c-0.111-8.558-4.697-13.308-13.231-13.486c-6.658-0.139-13.326,0.12-19.98-0.096c-3.292-0.107-4.247,0.995-4.24,4.266	c0.094,44.794,0.101,89.589-0.008,134.383c-0.009,3.492,1.346,4.154,4.407,4.113c9.99-0.135,19.985-0.18,29.972,0.019	c3.52,0.069,4.561-1.136,4.534-4.575c-0.138-16.817-0.124-33.637-0.037-50.455c0.053-10.153-0.512-20.322,0.426-30.457	c1.339-14.5,10.473-23.758,24.802-25.619c4.382-0.569,8.652-0.143,12.92,0.505c4.367,0.663,6.274-1.139,6.266-5.396	c-0.015-7.494-0.048-14.987,0.015-22.48c0.029-3.358-1.322-5.272-4.784-5.789c-13.2-1.97-24.368,1.438-32.905,12.103	C263.914,223.876,262.08,228.86,259.119,233.588z" clip-rule="evenodd"/><g><defs><path id="SVGID_1_" d="M56.964,256.003c0-30.332,0.092-60.665-0.105-90.996c-0.028-4.252,1.185-5.176,5.265-5.141 c25.497,0.221,51.007-0.295,76.491,0.323c20.853,0.505,39.051,8.125,50.951,25.966c14.972,22.448,16.14,46.757,4.473,70.786 c-11.114,22.892-31.459,32.606-56.012,33.989c-12.13,0.683-24.326,0.327-36.489,0.176c-3.462-0.043-4.55,0.903-4.514,4.451 c0.174,17.164-0.026,34.333,0.161,51.496c0.04,3.676-0.859,4.918-4.695,4.82c-10.326-0.262-20.668-0.277-30.994,0.006 c-3.947,0.109-4.622-1.318-4.606-4.882C57.021,316.668,56.964,286.335,56.964,256.003z M115.378,191.878 c-4.832,0-9.666,0.105-14.493-0.042c-2.639-0.08-3.862,0.506-3.844,3.544c0.121,20.324,0.09,40.65,0.026,60.975 c-0.007,2.423,0.494,3.632,3.281,3.58c9.16-0.174,18.349,0.301,27.481-0.248c20.562-1.234,31.673-12.484,32.665-32.392 c0.974-19.536-9.987-32.905-29.141-35.031C126.09,191.681,115.378,191.978,115.378,191.878z"/></defs><use fill-rule="evenodd" clip-rule="evenodd" overflow="visible" xlink:href="#SVGID_1_"/><clipPath id="SVGID_2_"><use overflow="visible" xlink:href="#SVGID_1_"/></clipPath><path fill-rule="evenodd" d="M56.964,256.003c0,30.332,0.056,60.665-0.075,90.996 c-0.016,3.563,0.659,4.991,4.606,4.882c10.325-0.283,20.667-0.268,30.994-0.006c3.836,0.098,4.735-1.145,4.695-4.82 c-0.188-17.163,0.013-34.332-0.161-51.496c-0.036-3.548,1.052-4.494,4.514-4.451c12.163,0.151,24.359,0.507,36.489-0.176 c24.552-1.383,44.897-11.097,56.012-33.989c11.667-24.029,10.5-48.338-4.473-70.786c-11.9-17.841-30.098-25.461-50.951-25.966 c-25.484-0.618-50.995-0.103-76.491-0.323c-4.08-0.035-5.292,0.889-5.265,5.141C57.056,195.339,56.964,225.671,56.964,256.003z" clip-path="url(#SVGID_2_)" clip-rule="evenodd"/></g><g><defs><path id="SVGID_3_" d="M315.446,281.626c0.099-19.011,3.621-36.469,15.474-51.155c15.867-19.659,37.477-25.831,61.573-23.923 c38.108,3.018,61.858,28.28,63.712,66.526c0.692,14.277-0.41,28.252-5.881,41.65c-7.521,18.418-20.696,30.726-39.764,36.411 c-18.27,5.447-36.605,5.267-54.348-1.839c-25.895-10.371-37.139-31.363-40.178-57.816 C315.637,288.012,315.61,284.501,315.446,281.626z M417.02,280.467c-0.092-9.835-1.27-19.53-5.888-28.481 c-5.233-10.144-13.333-15.962-25.039-16.006c-11.688-0.044-20.367,5.439-25.118,15.79c-8.715,18.984-8.698,38.444-0.095,57.46 c4.719,10.431,13.509,15.761,25.142,15.739c11.655-0.021,19.883-5.677,25.127-15.869 C415.757,300.142,416.912,290.442,417.02,280.467z"/></defs><use fill-rule="evenodd" clip-rule="evenodd" overflow="visible" xlink:href="#SVGID_3_"/><clipPath id="SVGID_4_"><use overflow="visible" xlink:href="#SVGID_3_"/></clipPath><path fill-rule="evenodd" d="M315.446,281.626c0.164,2.875,0.19,6.386,0.589,9.854 c3.039,26.453,14.283,47.445,40.178,57.816c17.742,7.105,36.078,7.286,54.348,1.839c19.067-5.686,32.242-17.993,39.764-36.411 c5.471-13.398,6.573-27.373,5.881-41.65c-1.854-38.247-25.604-63.509-63.712-66.526c-24.097-1.908-45.706,4.264-61.573,23.923 C319.067,245.157,315.545,262.615,315.446,281.626z" clip-path="url(#SVGID_4_)" clip-rule="evenodd"/></g><path fill-rule="evenodd" d="M259.119,233.588c2.961-4.728,4.795-9.712,8.146-13.899	c8.537-10.664,19.705-14.072,32.905-12.103c3.462,0.517,4.813,2.431,4.784,5.789c-0.063,7.493-0.029,14.987-0.015,22.48	c0.009,4.258-1.898,6.06-6.266,5.396c-4.268-0.648-8.538-1.074-12.92-0.505c-14.329,1.861-23.463,11.119-24.802,25.619	c-0.938,10.135-0.373,20.304-0.426,30.457c-0.087,16.818-0.101,33.638,0.037,50.455c0.027,3.439-1.014,4.645-4.534,4.575	c-9.987-0.198-19.982-0.153-29.972-0.019c-3.061,0.041-4.416-0.621-4.407-4.113c0.109-44.794,0.103-89.589,0.008-134.383	c-0.007-3.271,0.948-4.373,4.24-4.266c6.654,0.216,13.322-0.042,19.98,0.096c8.535,0.178,13.12,4.928,13.231,13.486	C259.16,226.3,259.119,229.944,259.119,233.588z" clip-rule="evenodd"/></svg> -->
<svg t="1587483331461" class="icon" viewBox="0 0 1024 1024" version="1.1" xmlns="http://www.w3.org/2000/svg" p-id="2280" width="128" height="128"><path d="M577.5 292.2c69.4-65.6 175.6-68.5 238.4-5.7 64 64 59.8 173.1-9.5 242.4L453.2 882.1c-69.3 69.3-178.4 73.6-242.4 9.5-64-64-59.8-173.1 9.5-242.4l256.1-256.1" fill="#d81e06" opacity=".47" p-id="2281"></path><path d="M604.3 673.1c30-24 108.7-81.6 122.3-95.1 13.6-13.6 61.4-58.5 108.7-81.6L453.2 882.1c-69.3 69.3-178.4 73.6-242.4 9.5 53.6-1.1 105.1-20 176-55.5 81.6-40.7 149.5-108.7 217.5-163z" fill="#d81e06" p-id="2282"></path><path d="M499.4 282.7c-3.5 0-7-1.3-9.6-4-5.3-5.3-5.3-13.9 0-19.2l33.5-33.5c5.3-5.3 13.9-5.3 19.2 0 5.3 5.3 5.3 13.9 0 19.2L509 278.7c-2.6 2.7-6.1 4-9.6 4z" p-id="2283" fill="#d81e06"></path><path d="M576.4 366.2c-3.5 0-7-1.3-9.6-4-5.3-5.3-5.3-13.9 0-19.2l26.7-26.7c27.7-26.1 63.2-41.7 100.4-44.2 17.7-1.2 35.3 0.6 52.1 5.3 7.2 2 11.5 9.5 9.5 16.7s-9.5 11.5-16.7 9.5c-13.9-3.9-28.3-5.3-43-4.3-30.9 2.1-60.4 15.1-83.2 36.5L586 362.3c-2.7 2.6-6.2 3.9-9.6 3.9z" fill="#d81e06" p-id="2284"></path><path d="M310.7 957.1c-55 0-110-20.9-151.9-62.8-83.8-83.7-83.8-220 0-303.8l289.3-289.3c5.3-5.3 13.9-5.3 19.2 0 5.3 5.3 5.3 13.9 0 19.2L178 609.7c-73.1 73.2-73.1 192.2 0 265.3s192.2 73.2 265.3 0l398.9-398.9c73.1-73.2 73.1-192.2 0-265.3-70.9-70.9-188.1-72.8-261.2-4.1-5.5 5.1-14.1 4.9-19.2-0.6s-4.9-14.1 0.6-19.2c83.7-78.7 217.8-76.6 299 4.6 83.8 83.8 83.8 220 0 303.8l-398.8 399c-41.9 41.8-96.9 62.8-151.9 62.8z" p-id="2285" fill="#d81e06"></path><path d="M646.1 687.2c-3.5 0-6.9-1.3-9.6-4L418 465.2c-5.3-5.3-5.3-13.9 0-19.2 5.3-5.3 13.9-5.3 19.2 0l218.5 218c5.3 5.3 5.3 13.9 0 19.2-2.6 2.7-6.1 4-9.6 4z" p-id="2286" fill="#d81e06"></path><path d="M387.4 143.2s-0.1 0 0 0h-40.8v-40.8c0-7.5-6.1-13.6-13.6-13.6s-13.6 6.1-13.6 13.6v40.8h-40.8c-7.5 0-13.6 6.1-13.6 13.6s6.1 13.6 13.6 13.6h40.8v40.8c0 7.5 6.1 13.6 13.6 13.6s13.6-6.1 13.6-13.6v-40.8h40.8c7.5 0 13.6-6.1 13.6-13.6-0.1-7.6-6.1-13.6-13.6-13.6z" fill="#d81e06" p-id="2287"></path><path d="M291.7 294.8c-6.2-6.2-16.3-6.2-22.4 0l-4.8 4.8-4.8-4.8c-6.2-6.2-16.3-6.2-22.4 0s-6.2 16.3 0 22.4l16 16c6.2 6.2 16.3 6.2 22.4 0l16-16c6.2-6.1 6.2-16.2 0-22.4z" fill="#d81e06" opacity=".47" p-id="2288"></path><path d="M529.5 129.4c-18.7 0-34-15.2-34-34s15.2-34 34-34c18.7 0 34 15.2 34 34s-15.2 34-34 34z m0-54.4c-11.2 0-20.4 9.1-20.4 20.4s9.1 20.4 20.4 20.4 20.4-9.1 20.4-20.4S540.8 75 529.5 75z" fill="#d81e06" opacity=".47" p-id="2289"></path><path d="M697.3 877.9c-0.4-12.2-10.8-21.9-23-21.4l-9.5 0.3-0.3-9.5c-0.4-12.2-10.8-21.9-23-21.4s-21.9 10.8-21.4 23l1.1 31.7c0.4 12.2 10.8 21.9 23 21.4l31.7-1.1c12.2-0.4 21.8-10.8 21.4-23z" fill="#d81e06" p-id="2290"></path></svg>
